<svg id="SvgjsSvg1269" width="288" height="288" xmlns="http://www.w3.org/2000/svg" version="1.1" xmlns:xlink="http://www.w3.org/1999/xlink" xmlns:svgjs="http://svgjs.com/svgjs"><defs id="SvgjsDefs1270"></defs><g id="SvgjsG1271"><svg xmlns="http://www.w3.org/2000/svg" display="block" preserveAspectRatio="none" viewBox="0 0 2048 2048" width="288" height="288"><defs><linearGradient id="j" x1="1133.18" x2="1271.29" y1="1562.73" y2="1420.42" gradientUnits="userSpaceOnUse"><stop offset="0" stop-color="#ff621f" class="svgShape stopColore88636-2"></stop><stop offset="1" stop-color="#ffa077" class="svgShape stopColoredc289-3"></stop></linearGradient><linearGradient id="i" x1="1732.28" x2="1615.99" y1="1646.45" y2="1329.09" gradientUnits="userSpaceOnUse"><stop offset="0" stop-color="#ff5c16" class="svgShape stopColore08235-5"></stop><stop offset="1" stop-color="#ff8d5c" class="svgShape stopColordfb57c-6"></stop></linearGradient><linearGradient id="h" x1="961.045" x2="1054.03" y1="1319.89" y2="1293.37" gradientUnits="userSpaceOnUse"><stop offset="0" stop-color="#ff6320" class="svgShape stopColorff7c20-8"></stop><stop offset="1" stop-color="#ff8652" class="svgShape stopColore3a46e-9"></stop></linearGradient><linearGradient id="g" x1="1025.35" x2="976.304" y1="1407.89" y2="1412.14" gradientUnits="userSpaceOnUse"><stop offset="0" stop-color="#e44400" class="svgShape stopColore43c00-11"></stop><stop offset="1" stop-color="#b13500" class="svgShape stopColorae0a03-12"></stop></linearGradient><linearGradient id="f" x1="1065.89" x2="967.997" y1="1427.32" y2="1410.52" gradientUnits="userSpaceOnUse"><stop offset="0" stop-color="#cd3d00" class="svgShape stopColorcd2d00-14"></stop><stop offset="1" stop-color="#ff5f1b" class="svgShape stopColorf0742a-15"></stop></linearGradient><linearGradient id="e" x1="425.944" x2="585.88" y1="1572.1" y2="851.867" gradientUnits="userSpaceOnUse"><stop offset="0" stop-color="#ff986c" class="svgShape stopColoreab981-17"></stop><stop offset="1" stop-color="#ffd6c5" class="svgShape stopColorf8e6cc-18"></stop></linearGradient><linearGradient id="d" x1="579.62" x2="524.87" y1="1876.93" y2="1384.37" gradientUnits="userSpaceOnUse"><stop offset="0" stop-color="#ef4800" class="svgShape stopColore14f0e-20"></stop><stop offset="1" stop-color="#ff5d18" class="svgShape stopColore87f2f-21"></stop></linearGradient><linearGradient id="c" x1="1321.2" x2="1244.36" y1="718.955" y2="429.367" gradientUnits="userSpaceOnUse"><stop offset="0" stop-color="#ffa781" class="svgShape stopColorf0c890-23"></stop><stop offset="1" stop-color="#ffbca0" class="svgShape stopColoredddb2-24"></stop></linearGradient><linearGradient id="b" x1="927.087" x2="1162.03" y1="847.412" y2="71.377" gradientUnits="userSpaceOnUse"><stop offset="0" stop-color="#ffb190" class="svgShape stopColorf2d09d-26"></stop><stop offset="1" stop-color="#ffe1d4" class="svgShape stopColorf6f5dd-27"></stop></linearGradient><linearGradient id="a" x1="1120.75" x2="1078.81" y1="1099.37" y2="562.26" gradientUnits="userSpaceOnUse"><stop offset="0" stop-color="#ff6e30" class="svgShape stopColorf39f3c-29"></stop><stop offset="1" stop-color="#ffb190" class="svgShape stopColorf2d29d-30"></stop></linearGradient></defs><path fill="#ffffff" d="M 0 0 L 2048 0 L 2048 2048 L 0 2048 L 0 0 z" class="svgShape colorffffff-31 selectable"></path><path fill="url(#a)" d="M 630.147 586.654 C 629.364 578.386 629.962 557.48 629.959 548.284 L 629.886 470.175 L 629.717 340.81 C 629.696 321.026 629.431 301.223 629.546 281.444 C 629.63 266.89 631.324 260.817 646.05 255.646 C 687.433 241.115 728.901 226.786 770.261 212.208 L 1026.28 122.173 L 1121.86 87.8392 C 1136.14 82.826 1152.45 76.5426 1167.3 73.5888 C 1173.78 72.3001 1180.77 75.6897 1186.14 79.3249 C 1202.94 90.7064 1219.42 103.498 1235.91 115.412 L 1336.95 187.955 L 1476.78 288.453 C 1502.1 306.631 1531.19 326.354 1555.48 345.449 C 1556.84 355.831 1556.12 383.129 1556.1 395.035 L 1556 489.202 L 1556.45 658.021 C 1556.58 687.67 1557.41 721.193 1556.66 750.583 L 1556.99 860.367 C 1557 877.402 1557.3 894.576 1556.57 911.579 C 1556.31 917.532 1550.36 921.397 1546.16 924.832 C 1544.22 927.652 1544.27 927.886 1544.34 931.304 C 1541.82 933.379 1542.67 932.675 1539.22 933.665 L 1540.04 938.483 C 1533.65 941.93 1525.77 943.235 1519.77 946.379 C 1498.17 957.698 1474.29 961.753 1452.19 970.041 C 1416.38 983.469 1379.31 994.901 1343.44 1007.66 L 1102.53 1092.75 C 1091.97 1096.37 1044.73 1114.71 1037.78 1115.51 C 1038.57 1118.82 1038.74 1120.44 1039.08 1123.85 C 1031.43 1127.24 1025.76 1128.92 1021.65 1136.35 C 1019.39 1134.07 1019.6 1134.16 1016.45 1133.56 C 1009.13 1136.77 1010.73 1147.19 1010.97 1154.17 C 1010.95 1163.88 1010.75 1173.58 1010.37 1183.28 C 1008.21 1166.35 1011.27 1146.89 1009.96 1130.14 C 1007.97 1130.89 1009.02 1130.8 1006.79 1130.28 L 1004.48 1126.21 C 1002.02 1125.46 999.43 1124.24 997.033 1123.21 C 998.976 1125.66 1002.01 1128.98 1002.83 1131.79 L 1000.76 1132.55 C 999.419 1136.29 999.468 1137.49 999.109 1141.53 C 998.824 1137.45 999.856 1131.17 997.905 1128.44 C 985.636 1120.87 970.732 1109.81 958.721 1101.26 L 885.08 1048.37 L 633.028 867.399 L 631.45 867.306 C 629.125 865.028 629.729 866.384 629.637 863.079 L 630.112 861.788 C 629.884 853.189 633.359 850.39 640.85 847.14 L 641.591 845.882 C 637.705 842.958 633.894 839.935 630.162 836.817 C 629.928 828.772 630.014 820.486 630.062 812.417 C 630.507 737.207 629.335 661.852 630.147 586.654 z" class="svgShape colorgradient-32 selectable"></path><path fill="url(#b)" d="M 630.147 586.654 C 629.364 578.386 629.962 557.48 629.959 548.284 L 629.886 470.175 L 629.717 340.81 C 629.696 321.026 629.431 301.223 629.546 281.444 C 629.63 266.89 631.324 260.817 646.05 255.646 C 687.433 241.115 728.901 226.786 770.261 212.208 L 1026.28 122.173 L 1121.86 87.8392 C 1136.14 82.826 1152.45 76.5426 1167.3 73.5888 C 1173.78 72.3001 1180.77 75.6897 1186.14 79.3249 C 1202.94 90.7064 1219.42 103.498 1235.91 115.412 L 1336.95 187.955 L 1476.78 288.453 C 1502.1 306.631 1531.19 326.354 1555.48 345.449 C 1512.04 359.348 1464.14 377.622 1420.55 392.909 L 1121.84 498.169 C 1106.12 503.711 1021.74 536.322 1011.51 536.846 C 1010.23 546.173 1010.93 561.755 1010.65 571.904 C 1011.93 654.925 1011.58 737.963 1009.6 820.971 C 1009.47 825.011 1010.47 843.312 1009.84 845.16 C 1006.43 850.298 1010.59 868.339 1005.23 871.713 C 997.262 869.617 986.307 852.296 978.932 847.104 C 962.405 835.467 946.687 820.362 930.477 808.697 C 913.972 796.819 896.924 785.249 880.488 773.297 C 866.761 763.316 853.462 748.485 840.525 738.258 C 824.032 725.218 801.44 713.818 784.683 701.712 L 674.91 622.582 C 664.136 614.656 650.155 602.245 636.467 596.652 C 635.379 596.207 634.336 597.251 632.969 598.058 L 632.002 597.601 C 630.92 578.784 633.167 554.926 631.567 535.823 C 630.274 551.142 631.956 572.133 630.35 585.121 L 630.147 586.654 z" class="svgShape colorgradient-33 selectable"></path><path fill="#ffbca0" d="M 1010.65 571.904 C 1007.45 578.871 1009.72 633.098 1007.69 645.452 C 1006.59 643.098 1006.71 611.81 1007.06 603.5 C 1007.81 585.705 1004.81 556.439 1008.16 538.56 C 1008.38 537.415 1010.27 537.217 1011.51 536.846 C 1010.23 546.173 1010.93 561.755 1010.65 571.904 z" class="svgShape colorf2d3ad-34 selectable"></path><path fill="url(#c)" d="M 1011.51 536.846 C 1021.74 536.322 1106.12 503.711 1121.84 498.169 L 1420.55 392.909 C 1464.14 377.622 1512.04 359.348 1555.48 345.449 C 1556.84 355.831 1556.12 383.129 1556.1 395.035 L 1556 489.202 L 1556.45 658.021 C 1556.58 687.67 1557.41 721.193 1556.66 750.583 C 1552.32 732.315 1556.87 696.78 1554.81 677.203 C 1554.17 671.152 1557.63 653.171 1550.5 649.362 C 1541.17 646.184 1532.98 628.817 1524.54 626.459 C 1507.18 621.609 1483.17 632.599 1465.81 635.478 C 1454.6 637.336 1444.38 637.693 1433.26 639.452 C 1426.85 640.454 1411.44 646.594 1406.69 644.911 C 1406.21 642.945 1406.35 643.934 1406.28 641.947 C 1405.15 643.708 1404.67 644.665 1403.76 646.553 C 1383.74 645.84 1373.51 649.07 1355.45 655.754 C 1349.95 657.79 1337.88 657.53 1331.72 660.292 C 1325.59 662.642 1325.69 667.576 1316.54 669.902 C 1301.62 673.706 1286.54 676.895 1271.36 679.461 C 1263.61 680.847 1260.04 688.114 1249.29 689.832 C 1234.96 692.121 1220.97 699.09 1205.4 698.232 C 1202.76 698.087 1186.73 707.74 1182.42 707.299 C 1173.39 708.857 1168.6 715.835 1159.62 717.484 C 1145.16 720.459 1130.19 725 1116 729.222 C 1109.12 731.268 1103.2 736.321 1094.88 738.619 C 1084.22 741.558 1073.71 743.963 1065.61 751.263 C 1058.43 751.624 1048.36 754.369 1041.53 756.816 C 1039.95 758.933 1040.12 759.61 1039.59 762.275 L 1038.57 763.178 C 1034.54 761.727 1036.41 761.67 1032.81 762.568 C 1025.01 769.969 1027.59 771.278 1022.01 778.353 C 1012.09 790.943 1012.85 810.876 1012.41 822.155 C 1011.97 833.452 1013.51 907.093 1011.95 911.995 L 1011.54 912.185 C 1009.26 902.632 1012.98 850.762 1009.84 845.16 C 1010.47 843.312 1009.47 825.011 1009.6 820.971 C 1011.58 737.963 1011.93 654.925 1010.65 571.904 C 1010.93 561.755 1010.23 546.173 1011.51 536.846 z" class="svgShape colorgradient-35 selectable"></path><path fill="#ff7235" d="M 641.591 845.882 C 642.924 847.765 644.295 848.896 644.125 850.625 C 643.715 854.817 644.729 859.101 648.184 862.022 C 658.255 870.534 670.458 878.733 681.239 886.377 L 757.435 939.647 L 897.791 1040.24 L 950.806 1077.88 C 958.72 1083.53 967.373 1090.41 975.291 1095.66 C 979.687 1099.08 999.9 1113.52 1002.14 1115.62 C 1001.34 1119.9 1002.35 1122.66 1004.48 1126.21 C 1002.02 1125.46 999.43 1124.24 997.033 1123.21 C 998.976 1125.66 1002.01 1128.98 1002.83 1131.79 L 1000.76 1132.55 C 999.419 1136.29 999.468 1137.49 999.109 1141.53 C 998.824 1137.45 999.856 1131.17 997.905 1128.44 C 985.636 1120.87 970.732 1109.81 958.721 1101.26 L 885.08 1048.37 L 633.028 867.399 L 631.45 867.306 C 629.125 865.028 629.729 866.384 629.637 863.079 L 630.112 861.788 C 629.884 853.189 633.359 850.39 640.85 847.14 L 641.591 845.882 z" class="svgShape colore7944d-36 selectable"></path><path fill="#ffac88" d="M 641.591 845.882 C 642.924 847.765 644.295 848.896 644.125 850.625 C 643.715 854.817 644.729 859.101 648.184 862.022 C 658.255 870.534 670.458 878.733 681.239 886.377 L 757.435 939.647 L 897.791 1040.24 L 950.806 1077.88 C 958.72 1083.53 967.373 1090.41 975.291 1095.66 C 979.687 1099.08 999.9 1113.52 1002.14 1115.62 C 1001.34 1119.9 1002.35 1122.66 1004.48 1126.21 C 1002.02 1125.46 999.43 1124.24 997.033 1123.21 L 994.239 1121.8 C 993.931 1120.64 993.811 1120.09 993.385 1118.92 C 991.882 1114.75 892.056 1042.03 882.661 1037.44 C 868.926 1027.89 856.169 1017.93 842.238 1008.55 C 841.821 1008.31 841.405 1008.06 840.988 1007.82 C 804.138 982.381 768.696 954.706 731.532 929.551 C 727.746 926.989 708.693 912.136 706.323 911.519 C 683.676 905.625 656.843 864.983 633.915 865.466 L 633.028 867.399 L 631.45 867.306 C 629.125 865.028 629.729 866.384 629.637 863.079 L 630.112 861.788 C 629.884 853.189 633.359 850.39 640.85 847.14 L 641.591 845.882 z" class="svgShape colorf4c793-37 selectable"></path><path fill="#ffbca0" d="M 630.112 861.788 C 629.884 853.189 633.359 850.39 640.85 847.14 C 640.673 851.497 642.716 858.285 641.703 860.733 C 638.06 862.328 636.08 862.057 632.478 860.243 C 631.434 860.819 630.867 860.969 630.112 861.788 z" class="svgShape colorf2d3ad-38 selectable"></path><path fill="#ff834e" d="M 842.238 1008.55 C 856.169 1017.93 868.926 1027.89 882.661 1037.44 C 892.056 1042.03 991.882 1114.75 993.385 1118.92 C 993.811 1120.09 993.931 1120.64 994.239 1121.8 C 987.305 1118.67 972.884 1105.89 965.305 1100.82 C 937.336 1082.13 909.666 1062.1 882.635 1042.04 C 874.922 1038.14 846.946 1016.78 838.681 1010.56 L 842.238 1008.55 z" class="svgShape colore8a565-39 selectable"></path><path fill="#ff834e" d="M 1532.08 935.642 C 1534.46 934.971 1536.84 934.312 1539.22 933.665 L 1540.04 938.483 C 1533.65 941.93 1525.77 943.235 1519.77 946.379 C 1498.17 957.698 1474.29 961.753 1452.19 970.041 C 1416.38 983.469 1379.31 994.901 1343.44 1007.66 L 1102.53 1092.75 C 1091.97 1096.37 1044.73 1114.71 1037.78 1115.51 C 1038.57 1118.82 1038.74 1120.44 1039.08 1123.85 C 1031.43 1127.24 1025.76 1128.92 1021.65 1136.35 C 1019.39 1134.07 1019.6 1134.16 1016.45 1133.56 C 1009.13 1136.77 1010.73 1147.19 1010.97 1154.17 C 1010.95 1163.88 1010.75 1173.58 1010.37 1183.28 C 1008.21 1166.35 1011.27 1146.89 1009.96 1130.14 C 1007.97 1130.89 1009.02 1130.8 1006.79 1130.28 L 1004.48 1126.21 C 1002.35 1122.66 1001.34 1119.9 1002.14 1115.62 C 999.9 1113.52 979.687 1099.08 975.291 1095.66 C 978.735 1096.6 981.709 1097.56 985.307 1097.7 C 993.671 1102.39 999.728 1108.12 1007.51 1113.14 C 1015.3 1114.13 1023.42 1116.17 1030.35 1112.85 C 1047.49 1107.66 1068.16 1099.4 1085.39 1093.34 C 1122.35 1080.59 1159.23 1067.61 1196.03 1054.41 L 1425.68 973.522 C 1461.04 961.086 1496.68 947.7 1532.08 935.642 z" class="svgShape colore8a565-40 selectable"></path><path fill="#ffbca0" d="M 1002.14 1115.62 C 1014.61 1123.06 1021.4 1113.6 1029.94 1117.65 C 1024.17 1120.1 1011.79 1123.83 1009.96 1130.14 C 1007.97 1130.89 1009.02 1130.8 1006.79 1130.28 L 1004.48 1126.21 C 1002.35 1122.66 1001.34 1119.9 1002.14 1115.62 z" class="svgShape colorf2d3ad-41 selectable"></path><path fill="#f54900" d="M 1018.35 1110.71 C 1032.98 1107.08 1057.39 1097.71 1072.57 1092.4 L 1175.03 1056.25 L 1462.94 954.987 C 1473.64 951.254 1524.73 931.667 1531.47 932.182 L 1532.08 935.642 C 1496.68 947.7 1461.04 961.086 1425.68 973.522 L 1196.03 1054.41 C 1159.23 1067.61 1122.35 1080.59 1085.39 1093.34 C 1068.16 1099.4 1047.49 1107.66 1030.35 1112.85 C 1025.16 1112.87 1022.16 1113.58 1018.35 1110.71 z" class="svgShape colordf5a16-42 selectable"></path><path fill="#ff7235" d="M 985.307 1097.7 C 980.459 1093.29 973.664 1089.29 968.195 1085.32 C 953.8 1074.75 939.291 1064.34 924.669 1054.09 L 760.53 936.518 C 735.208 918.882 710.049 901.014 685.056 882.916 C 679.249 878.708 651.736 860.502 650.239 855.115 C 655.402 853.559 713.055 897.217 723.071 904.276 L 920.007 1045.7 L 978.711 1087.41 C 986.266 1092.82 997.049 1101.83 1004.72 1106.04 C 1006.43 1106.94 1008.15 1107.8 1009.88 1108.64 C 1012.95 1109.18 1015.5 1109.43 1018.35 1110.71 C 1022.16 1113.58 1025.16 1112.87 1030.35 1112.85 C 1023.42 1116.17 1015.3 1114.13 1007.51 1113.14 C 999.728 1108.12 993.671 1102.39 985.307 1097.7 z" class="svgShape colore7944d-43 selectable"></path><path fill="#ff7235" d="M 1004.72 1106.04 C 1009.56 1098.22 1002.8 1039.24 1007.13 1026.02 C 1008.45 1033.08 1007.9 1040.42 1008.21 1047.59 C 1008.97 1065.32 1007.66 1086.09 1009.39 1103.51 C 1009.54 1105.22 1009.7 1106.93 1009.88 1108.64 C 1008.15 1107.8 1006.43 1106.94 1004.72 1106.04 z" class="svgShape colore7944d-44 selectable"></path><path fill="url(#d)" d="M 72.4441 1051.54 C 83.0896 1038.51 98.1251 1035.88 113.544 1030.49 L 162.652 1013.18 L 326.168 955.772 L 503.896 893.14 C 536.287 881.671 569.099 869.709 601.772 859.069 C 613.924 855.112 619.054 857.215 629.637 863.079 C 629.729 866.384 629.125 865.028 631.45 867.306 L 633.028 867.399 L 885.08 1048.37 L 958.721 1101.26 C 970.732 1109.81 985.636 1120.87 997.905 1128.44 C 999.856 1131.17 998.824 1137.45 999.109 1141.53 C 999.468 1137.49 999.419 1136.29 1000.76 1132.55 L 1002.83 1131.79 C 1002.01 1128.98 998.976 1125.66 997.033 1123.21 C 999.43 1124.24 1002.02 1125.46 1004.48 1126.21 L 1006.79 1130.28 C 1009.02 1130.8 1007.97 1130.89 1009.96 1130.14 C 1011.27 1146.89 1008.21 1166.35 1010.37 1183.28 C 1010.75 1173.58 1010.95 1163.88 1010.97 1154.17 C 1010.73 1147.19 1009.13 1136.77 1016.45 1133.56 C 1019.6 1134.16 1019.39 1134.07 1021.65 1136.35 L 1021.97 1138.09 C 1022.06 1145.74 1022.47 1155.86 1021.91 1163.29 L 1022.13 1367.62 C 1022.14 1400.75 1023.19 1440.21 1022.13 1472.74 C 1020.32 1506.66 1029.51 1677.63 1021.94 1694.25 L 1019.23 1695.34 C 1009.9 1696.29 1008.92 1695.2 1000.85 1690.58 C 995.367 1703.26 998.377 1703.71 983.284 1709.73 C 959.04 1719.41 934.118 1727.4 909.467 1736.03 L 770.367 1784.93 C 743.938 1794.4 712.764 1806.34 686.164 1814.48 C 675.88 1819 659.647 1824.1 648.501 1827.99 L 585.798 1850.2 L 512.219 1876.11 C 500.126 1880.37 459.337 1898.06 449.422 1890.2 L 448.022 1889.66 C 434.662 1881.61 412.723 1864.92 399.528 1855.48 L 306.645 1788.82 L 154.669 1679.84 C 127.415 1660.33 98.8395 1640.58 72.0621 1620.61 L 72.1235 1457.46 C 71.216 1419.83 72.0637 1379.19 72.147 1341.33 C 71.3195 1329.15 71.881 1309.65 71.8791 1297.08 L 71.8799 1214.33 L 71.914 1112.53 C 71.9276 1092.82 71.4868 1070.97 72.4441 1051.54 z" class="svgShape colorgradient-45 selectable"></path><path fill="url(#e)" d="M 72.4441 1051.54 C 83.0896 1038.51 98.1251 1035.88 113.544 1030.49 L 162.652 1013.18 L 326.168 955.772 L 503.896 893.14 C 536.287 881.671 569.099 869.709 601.772 859.069 C 613.924 855.112 619.054 857.215 629.637 863.079 C 629.729 866.384 629.125 865.028 631.45 867.306 L 633.028 867.399 L 885.08 1048.37 L 958.721 1101.26 C 970.732 1109.81 985.636 1120.87 997.905 1128.44 L 997.105 1128.83 C 975.428 1139.26 927.047 1153.81 903.534 1162.16 L 619.072 1264.27 L 515.475 1300.89 C 508.448 1303.38 457.564 1319.74 455.287 1324.78 C 452.671 1330.57 454.715 1360.02 454.361 1367.64 C 455.07 1422.1 453.555 1476.27 453.008 1530.68 C 452.938 1537.68 451.403 1574.26 452.255 1577.75 C 435.805 1576.4 374.762 1525.22 356.821 1511.55 C 350.482 1506.72 343.204 1503.06 336.726 1498.4 C 332.305 1495.22 329.176 1490.02 324.472 1487.43 C 307.371 1478.03 291.125 1465.76 274.759 1455.03 C 257.526 1443.73 240.224 1433.95 223.789 1421.26 C 200.2 1403.04 100.995 1314.98 82.5485 1309.7 C 79.9343 1308.95 78.3518 1308.53 75.9504 1309.87 C 72.2251 1316.15 72.7919 1332.8 72.147 1341.33 C 71.3195 1329.15 71.881 1309.65 71.8791 1297.08 L 71.8799 1214.33 L 71.914 1112.53 C 71.9276 1092.82 71.4868 1070.97 72.4441 1051.54 z" class="svgShape colorgradient-46 selectable"></path><path fill="#ff834e" d="M 997.905 1128.44 C 999.856 1131.17 998.824 1137.45 999.109 1141.53 C 999.759 1162.55 999.489 1194.58 998.844 1215.89 C 997.415 1228.59 997.656 1243.15 997.691 1256.02 C 997.756 1279.62 996.642 1303.1 996.578 1326.68 C 996.578 1326.57 991.605 1355.6 992.143 1354.36 C 991.188 1350.75 991.488 1336.83 993.154 1332.99 L 992.905 1332.07 C 991.875 1328.19 991.777 1327.23 991.675 1323.23 C 990.247 1340.69 989.561 1356.89 989.976 1374.4 C 990.12 1380.51 989.203 1384.95 989.708 1391.62 C 988.263 1396.98 984.276 1413.01 981.277 1416.78 C 971.078 1429.6 954.852 1442.19 940.528 1450.52 C 900.139 1474.04 857.448 1496.27 814.424 1514.52 C 808.851 1516.89 802.799 1518.49 797.148 1520.67 C 777.755 1526.63 759.695 1537.62 741.191 1546.51 C 710.955 1560.99 680.18 1574.32 648.931 1586.46 C 613.393 1600.19 576.911 1612.43 541.328 1626.21 C 521.815 1633.76 500.956 1645.6 480.64 1652.61 C 472.234 1655.5 460.323 1669.51 455 1676.59 L 455.007 1616.92 C 455.005 1609.53 455.419 1593.59 454.668 1586.81 C 454.151 1599.95 454.544 1617.36 453.268 1629.82 C 452.917 1621.28 453.545 1581.7 452.255 1577.75 C 451.403 1574.26 452.938 1537.68 453.008 1530.68 C 453.555 1476.27 455.07 1422.1 454.361 1367.64 C 454.715 1360.02 452.671 1330.57 455.287 1324.78 C 457.564 1319.74 508.448 1303.38 515.475 1300.89 L 619.072 1264.27 L 903.534 1162.16 C 927.047 1153.81 975.428 1139.26 997.105 1128.83 L 997.905 1128.44 z" class="svgShape colore8a565-47 selectable"></path><path fill="#ff7235" d="M 72.147 1341.33 C 72.7919 1332.8 72.2251 1316.15 75.9504 1309.87 C 78.3518 1308.53 79.9343 1308.95 82.5485 1309.7 C 100.995 1314.98 200.2 1403.04 223.789 1421.26 C 240.224 1433.95 257.526 1443.73 274.759 1455.03 C 291.125 1465.76 307.371 1478.03 324.472 1487.43 C 329.176 1490.02 332.305 1495.22 336.726 1498.4 C 343.204 1503.06 350.482 1506.72 356.821 1511.55 C 374.762 1525.22 435.805 1576.4 452.255 1577.75 C 453.545 1581.7 452.917 1621.28 453.268 1629.82 C 454.544 1617.36 454.151 1599.95 454.668 1586.81 C 455.419 1593.59 455.005 1609.53 455.007 1616.92 L 455 1676.59 C 460.323 1669.51 472.234 1655.5 480.64 1652.61 C 500.956 1645.6 521.815 1633.76 541.328 1626.21 C 576.911 1612.43 613.393 1600.19 648.931 1586.46 C 680.18 1574.32 710.955 1560.99 741.191 1546.51 C 759.695 1537.62 777.755 1526.63 797.148 1520.67 C 802.799 1518.49 808.851 1516.89 814.424 1514.52 C 857.448 1496.27 900.139 1474.04 940.528 1450.52 C 954.852 1442.19 971.078 1429.6 981.277 1416.78 C 984.276 1413.01 988.263 1396.98 989.708 1391.62 C 992.265 1475.07 978.14 1472.55 905.29 1508.51 C 869.003 1526.43 838.615 1544.11 798.563 1555.67 C 775.822 1562.24 743.319 1579.9 719.775 1588.05 C 707.671 1592.23 693.218 1601.35 680.949 1606.21 L 545.498 1659.08 C 522.911 1667.83 497.488 1675.5 476.622 1686.95 C 468.159 1691.59 457.059 1708.83 448.397 1716.59 C 447.93 1719.59 447.742 1723.89 445.776 1725.83 C 436.936 1728.06 411.094 1705.28 403.122 1699.35 C 386.375 1686.89 369.925 1673.46 352.958 1661.27 L 140.973 1511.5 C 125.322 1500.64 90.2802 1472.63 74.6736 1467.98 C 74.2122 1460.12 73.8847 1452.24 73.6913 1444.37 C 73.2109 1448.73 72.7813 1453.13 72.1235 1457.46 C 71.216 1419.83 72.0637 1379.19 72.147 1341.33 z" class="svgShape colore7944d-48 selectable"></path><path fill="#f54900" d="M 997.033 1123.21 C 999.43 1124.24 1002.02 1125.46 1004.48 1126.21 L 1006.79 1130.28 C 1009.02 1130.8 1007.97 1130.89 1009.96 1130.14 C 1011.27 1146.89 1008.21 1166.35 1010.37 1183.28 C 1010.75 1173.58 1010.95 1163.88 1010.97 1154.17 C 1010.73 1147.19 1009.13 1136.77 1016.45 1133.56 C 1019.6 1134.16 1019.39 1134.07 1021.65 1136.35 L 1021.97 1138.09 C 1022.06 1145.74 1022.47 1155.86 1021.91 1163.29 L 1022.13 1367.62 C 1022.14 1400.75 1023.19 1440.21 1022.13 1472.74 C 1020.32 1506.66 1029.51 1677.63 1021.94 1694.25 L 1019.23 1695.34 C 1009.9 1696.29 1008.92 1695.2 1000.85 1690.58 C 995.367 1703.26 998.377 1703.71 983.284 1709.73 C 959.04 1719.41 934.118 1727.4 909.467 1736.03 L 770.367 1784.93 C 743.938 1794.4 712.764 1806.34 686.164 1814.48 C 685.786 1813.64 685.973 1814.21 685.987 1812.69 C 696.721 1805.98 759.089 1786.12 761.573 1783.15 L 764.509 1783.95 C 767.514 1781.01 768.562 1782.81 770.986 1779.53 C 767.954 1776.19 770.068 1780.4 765.998 1777 C 765.674 1764.52 763.911 1763.2 755.396 1754.66 C 752.479 1751.73 745.443 1742.78 745.373 1738.55 L 748.814 1737.81 C 749.156 1733.05 742.825 1727.75 742.153 1720.69 C 743.873 1714.89 750.997 1712.65 750.569 1707.74 C 746.92 1706.3 745.163 1707.61 740.965 1706.67 C 739.197 1707.45 732.702 1713.52 732.676 1713.76 C 732.399 1716.34 732.776 1718.31 731.355 1721.89 C 728.069 1718.24 728.031 1707.13 729.381 1702.39 C 731.9 1700.46 733.443 1697.69 735.832 1696.21 C 750.49 1687.17 766.535 1679.84 781.794 1671.83 C 785.53 1669.87 792.514 1669.68 796.759 1667.06 C 838.726 1641.17 885.248 1624.32 928.923 1601.61 C 953.154 1588.89 988.301 1577.62 993.032 1547.77 C 993.418 1545.15 996.246 1539.5 996.275 1537.24 C 997.06 1477.49 998.528 1417.73 998.263 1357.93 C 998.227 1349.79 998.172 1341.3 998.734 1333.22 L 998.831 1331.95 C 998.925 1293.95 999.699 1253.71 998.844 1215.89 C 999.489 1194.58 999.759 1162.55 999.109 1141.53 C 999.468 1137.49 999.419 1136.29 1000.76 1132.55 L 1002.83 1131.79 C 1002.01 1128.98 998.976 1125.66 997.033 1123.21 z" class="svgShape colordf5a16-49 selectable"></path><path fill="url(#f)" d="M 997.033 1123.21 C 999.43 1124.24 1002.02 1125.46 1004.48 1126.21 L 1006.79 1130.28 C 1009.02 1130.8 1007.97 1130.89 1009.96 1130.14 C 1011.27 1146.89 1008.21 1166.35 1010.37 1183.28 C 1010.75 1173.58 1010.95 1163.88 1010.97 1154.17 C 1010.73 1147.19 1009.13 1136.77 1016.45 1133.56 C 1019.6 1134.16 1019.39 1134.07 1021.65 1136.35 L 1021.97 1138.09 C 1022.06 1145.74 1022.47 1155.86 1021.91 1163.29 L 1022.13 1367.62 C 1022.14 1400.75 1023.19 1440.21 1022.13 1472.74 C 1020.32 1506.66 1029.51 1677.63 1021.94 1694.25 L 1019.23 1695.34 C 1009.9 1696.29 1008.92 1695.2 1000.85 1690.58 C 997.779 1684.71 998.806 1660.37 998.794 1652.08 L 998.816 1592.42 L 999.121 1424.32 C 999.148 1395.78 1000.19 1360.03 998.831 1331.95 C 998.925 1293.95 999.699 1253.71 998.844 1215.89 C 999.489 1194.58 999.759 1162.55 999.109 1141.53 C 999.468 1137.49 999.419 1136.29 1000.76 1132.55 L 1002.83 1131.79 C 1002.01 1128.98 998.976 1125.66 997.033 1123.21 z" class="svgShape colorgradient-50 selectable"></path><path fill="url(#g)" d="M 999.109 1141.53 C 999.468 1137.49 999.419 1136.29 1000.76 1132.55 L 1002.83 1131.79 C 1004.68 1139.28 1004.23 1160.64 1004.24 1169.08 L 1004.22 1231.31 C 1004.21 1310.29 1004.84 1390.81 1003.95 1469.64 L 1003.32 1618.15 L 1003.46 1662.03 C 1003.51 1669.24 1005.12 1685.25 1000.85 1690.58 C 997.779 1684.71 998.806 1660.37 998.794 1652.08 L 998.816 1592.42 L 999.121 1424.32 C 999.148 1395.78 1000.19 1360.03 998.831 1331.95 C 998.925 1293.95 999.699 1253.71 998.844 1215.89 C 999.489 1194.58 999.759 1162.55 999.109 1141.53 z" class="svgShape colorgradient-51 selectable"></path><path fill="url(#h)" d="M 997.033 1123.21 C 999.43 1124.24 1002.02 1125.46 1004.48 1126.21 L 1006.79 1130.28 C 1009.02 1130.8 1007.97 1130.89 1009.96 1130.14 C 1011.27 1146.89 1008.21 1166.35 1010.37 1183.28 L 1011.11 1392.57 C 1011.17 1426.24 1012.17 1467.98 1010.5 1501.12 C 1009.55 1494.74 1010.94 1491.1 1009.47 1484.03 C 1008.24 1478.08 1004.59 1473.59 1003.95 1469.64 C 1004.84 1390.81 1004.21 1310.29 1004.22 1231.31 L 1004.24 1169.08 C 1004.23 1160.64 1004.68 1139.28 1002.83 1131.79 C 1002.01 1128.98 998.976 1125.66 997.033 1123.21 z" class="svgShape colorgradient-52 selectable"></path><path fill="#ff7235" d="M 1010.97 1154.17 C 1010.73 1147.19 1009.13 1136.77 1016.45 1133.56 C 1019.6 1134.16 1019.39 1134.07 1021.65 1136.35 L 1021.97 1138.09 C 1022.06 1145.74 1022.47 1155.86 1021.91 1163.29 C 1021.09 1158.33 1021.36 1146.71 1019.13 1143.39 C 1014.87 1145.41 1013.3 1149.79 1010.97 1154.17 z" class="svgShape colore7944d-53 selectable"></path><path fill="#f54900" d="M448.022 1889.66C449.929 1878.54 448.271 1862.78 448.324 1851.07 448.416 1830.95 447.936 1810.81 448.454 1790.66 453.051 1799.96 452.022 1873.79 451.333 1888.95 449.859 1890.14 450.557 1889.83 449.422 1890.2L448.022 1889.66zM714.585 1705.18L715.421 1705.53C717.601 1708.58 714.883 1718.79 711.696 1721.49 708.883 1723.88 702.368 1728.29 701.227 1731.48 698.348 1739.51 704.027 1757.66 695.943 1763.13 690.747 1763.75 685.832 1764.75 680.975 1765.46 672.437 1766.72 672.739 1771.33 666.327 1776.28 663.908 1778.15 658.536 1780.17 655.54 1781.35L654.489 1780.57C654.218 1776.88 655.906 1773.42 658.768 1771.09 667.006 1769.9 663.475 1766.43 669.681 1766.04 674.828 1766.39 676.732 1763.13 680.468 1760.86 692.094 1753.82 686.363 1739.57 693.435 1732.16 698.756 1729.03 695.002 1724.43 695.547 1722.46 697.07 1716.94 709.802 1710.05 714.585 1705.18zM738.178 1720.36C741.491 1723.35 741.697 1725.17 740.522 1729.39 737.308 1727.69 738.421 1728.88 736.738 1726.06L738.178 1720.36z" class="svgShape colordf5a16-54 selectable"></path><path fill="#ffbca0" d="M 1540.04 938.483 C 1544.94 936.887 1544.33 936.163 1548.05 937.578 L 1551.81 942.189 L 1556.47 941.113 C 1559.01 942.63 1565.85 942.1 1569.22 942.085 C 1586.79 952.309 1623.51 980.707 1641.83 993.934 L 1785.44 1097.23 L 1890.98 1173 C 1908.64 1185.59 1932.11 1200.52 1947.79 1214.78 C 1949.32 1226.12 1948.77 1256.95 1948.78 1269.78 L 1948.81 1373.05 L 1948.93 1554.25 C 1948.95 1584.92 1949.83 1620.38 1948.81 1650.56 C 1949.02 1668.41 1950.8 1777.86 1946.84 1786.76 C 1932.58 1796.71 1888.44 1810.75 1870.39 1817.12 L 1759.63 1856.1 L 1532.07 1936.37 C 1496.78 1948.75 1461.44 1961.28 1426.06 1973.4 C 1419.97 1975.48 1410.76 1977.81 1404.38 1978.26 C 1390.66 1971.43 1355.77 1945.19 1341.9 1935.16 L 1234.42 1857.82 L 1098.44 1760.2 C 1078.41 1745.92 1039.54 1719.87 1022.38 1704.72 C 1022.58 1700.23 1023.41 1699.17 1021.56 1695.95 L 1019.23 1695.34 L 1021.94 1694.25 C 1029.51 1677.63 1020.32 1506.66 1022.13 1472.74 C 1023.19 1440.21 1022.14 1400.75 1022.13 1367.62 L 1021.91 1163.29 C 1022.47 1155.86 1022.06 1145.74 1021.97 1138.09 L 1021.65 1136.35 C 1025.76 1128.92 1031.43 1127.24 1039.08 1123.85 C 1038.74 1120.44 1038.57 1118.82 1037.78 1115.51 C 1044.73 1114.71 1091.97 1096.37 1102.53 1092.75 L 1343.44 1007.66 C 1379.31 994.901 1416.38 983.469 1452.19 970.041 C 1474.29 961.753 1498.17 957.698 1519.77 946.379 C 1525.77 943.235 1533.65 941.93 1540.04 938.483 z" class="svgShape colorf2d3ad-55 selectable"></path><path fill="#f54900" d="M 1022.13 1472.74 C 1022.72 1477.56 1023.23 1482.38 1023.67 1487.21 C 1024.1 1478.86 1023.08 1424.72 1024.57 1421.46 C 1030.57 1426.69 1052.43 1466.21 1060.64 1478.32 C 1073.19 1496.57 1086.86 1514.02 1101.58 1530.56 C 1125.32 1557.5 1145.27 1569.96 1171.1 1593.28 C 1215.47 1633.6 1260.84 1672.82 1307.17 1710.88 C 1328.66 1728.84 1349.59 1748.27 1371.82 1765.42 C 1380.45 1772.07 1391.66 1779.7 1402.76 1777.25 C 1403.74 1786.33 1402.26 1789.23 1404.76 1800.59 C 1405.75 1794.08 1405.48 1775.51 1405.57 1768.08 C 1410.37 1764.63 1410.48 1762.49 1414.12 1758.32 C 1433.58 1736.03 1462.83 1730.6 1489.34 1721.03 C 1517.37 1710.92 1546.22 1702.63 1574.2 1692.36 L 1764.66 1623.6 C 1786.15 1615.83 1804.78 1607.14 1827.29 1600.87 C 1840.01 1597.33 1853.25 1588.97 1867.93 1586.27 C 1883.83 1583.34 1939.67 1559.84 1944.98 1545.8 C 1949.75 1558.07 1944.94 1604.5 1947.6 1621.53 C 1948.85 1629.57 1946.87 1641.2 1948.81 1650.56 C 1949.02 1668.41 1950.8 1777.86 1946.84 1786.76 C 1932.58 1796.71 1888.44 1810.75 1870.39 1817.12 L 1759.63 1856.1 L 1532.07 1936.37 C 1496.78 1948.75 1461.44 1961.28 1426.06 1973.4 C 1419.97 1975.48 1410.76 1977.81 1404.38 1978.26 C 1390.66 1971.43 1355.77 1945.19 1341.9 1935.16 L 1234.42 1857.82 L 1098.44 1760.2 C 1078.41 1745.92 1039.54 1719.87 1022.38 1704.72 C 1022.58 1700.23 1023.41 1699.17 1021.56 1695.95 L 1019.23 1695.34 L 1021.94 1694.25 C 1029.51 1677.63 1020.32 1506.66 1022.13 1472.74 z" class="svgShape colordf5a16-56 selectable"></path><path fill="url(#i)" d="M 1947.79 1214.78 C 1949.32 1226.12 1948.77 1256.95 1948.78 1269.78 L 1948.81 1373.05 L 1948.93 1554.25 C 1948.95 1584.92 1949.83 1620.38 1948.81 1650.56 C 1946.87 1641.2 1948.85 1629.57 1947.6 1621.53 C 1944.94 1604.5 1949.75 1558.07 1944.98 1545.8 C 1939.67 1559.84 1883.83 1583.34 1867.93 1586.27 C 1853.25 1588.97 1840.01 1597.33 1827.29 1600.87 C 1804.78 1607.14 1786.15 1615.83 1764.66 1623.6 L 1574.2 1692.36 C 1546.22 1702.63 1517.37 1710.92 1489.34 1721.03 C 1462.83 1730.6 1433.58 1736.03 1414.12 1758.32 C 1410.48 1762.49 1410.37 1764.63 1405.57 1768.08 C 1405.48 1775.51 1405.75 1794.08 1404.76 1800.59 C 1402.26 1789.23 1403.74 1786.33 1402.76 1777.25 C 1402.5 1772.67 1402.39 1768.1 1402.64 1763.52 C 1403.81 1741.66 1403.85 1719.8 1403.75 1697.91 L 1402.4 1530.68 C 1402.19 1501.54 1402.81 1470.23 1401.94 1441.34 L 1402.4 1407.14 C 1428.54 1395.42 1471.04 1381.92 1498.88 1372.04 L 1686.24 1305.87 L 1862.38 1243.84 C 1885.16 1235.89 1925.61 1219.97 1947.79 1214.78 z" class="svgShape colorgradient-57 selectable"></path><path fill="url(#j)" d="M 1021.97 1138.09 C 1029.91 1147.02 1043.32 1152.45 1054.1 1161.36 C 1049.78 1160.61 1029.61 1145.43 1023.54 1144.44 C 1023.23 1158.55 1022.85 1172.35 1023.2 1186.46 C 1029.37 1187.05 1039.86 1193.72 1042.95 1199.42 C 1048.42 1209.51 1047.67 1221.13 1049.51 1232.2 C 1050.11 1235.73 1057.69 1255.04 1059.49 1256.92 C 1069.28 1267.14 1079.71 1273.26 1089.66 1285.24 C 1097.63 1294.83 1103.66 1304.22 1111.05 1313.62 C 1116.64 1320.74 1128.92 1330.83 1135.23 1338.41 C 1152.82 1359.57 1169.78 1381.26 1186.95 1402.77 C 1196.6 1414.85 1207.5 1424.31 1216.75 1435.51 L 1218.09 1434.29 C 1221.74 1437.49 1226.46 1443.73 1229.76 1447.68 C 1245.55 1466.56 1267.73 1479.87 1285.52 1495.76 C 1302.07 1510.53 1309.61 1517.21 1328.68 1529.14 C 1349.82 1542.37 1372.83 1567.63 1395.79 1576.89 L 1396.62 1578.33 C 1399.24 1552.44 1394.25 1520.56 1396.96 1493.84 C 1397.46 1488.87 1396.09 1478.57 1397.29 1474.48 C 1401.96 1479.86 1396.35 1599.79 1400.39 1607.21 C 1401.03 1553.51 1400.32 1499.67 1400.54 1445.95 C 1400.55 1444.13 1400.86 1442.79 1401.94 1441.34 C 1402.81 1470.23 1402.19 1501.54 1402.4 1530.68 L 1403.75 1697.91 C 1403.85 1719.8 1403.81 1741.66 1402.64 1763.52 C 1402.39 1768.1 1402.5 1772.67 1402.76 1777.25 C 1391.66 1779.7 1380.45 1772.07 1371.82 1765.42 C 1349.59 1748.27 1328.66 1728.84 1307.17 1710.88 C 1260.84 1672.82 1215.47 1633.6 1171.1 1593.28 C 1145.27 1569.96 1125.32 1557.5 1101.58 1530.56 C 1086.86 1514.02 1073.19 1496.57 1060.64 1478.32 C 1052.43 1466.21 1030.57 1426.69 1024.57 1421.46 C 1023.08 1424.72 1024.1 1478.86 1023.67 1487.21 C 1023.23 1482.38 1022.72 1477.56 1022.13 1472.74 C 1023.19 1440.21 1022.14 1400.75 1022.13 1367.62 L 1021.91 1163.29 C 1022.47 1155.86 1022.06 1145.74 1021.97 1138.09 z" class="svgShape colorgradient-58 selectable"></path><path fill="#ff7235" d="M 1540.04 938.483 C 1544.94 936.887 1544.33 936.163 1548.05 937.578 L 1551.81 942.189 C 1500.33 961.527 1445.64 980.014 1393.68 998.295 L 1167.35 1078.48 C 1124.49 1093.32 1081.73 1108.44 1039.08 1123.85 C 1038.74 1120.44 1038.57 1118.82 1037.78 1115.51 C 1044.73 1114.71 1091.97 1096.37 1102.53 1092.75 L 1343.44 1007.66 C 1379.31 994.901 1416.38 983.469 1452.19 970.041 C 1474.29 961.753 1498.17 957.698 1519.77 946.379 C 1525.77 943.235 1533.65 941.93 1540.04 938.483 z" class="svgShape colore7944d-59 selectable"></path><path fill="#ffac88" d="M 1539.22 933.665 C 1542.67 932.675 1541.82 933.379 1544.34 931.304 C 1544.27 927.886 1544.22 927.652 1546.16 924.832 C 1554.36 929.82 1557.06 930.593 1556.47 941.113 L 1551.81 942.189 L 1548.05 937.578 C 1544.33 936.163 1544.94 936.887 1540.04 938.483 L 1539.22 933.665 z" class="svgShape colorf4c793-60 selectable"></path></svg></g></svg>